<?xml version="1.0" encoding="utf-8"?>
<!-- MIT sangsq https://github.com/sangyuxiaowu/MuYu  -->
<svg version="1.1" id="图层_1" xmlns:serif="http://www.serif.com/"
	 xmlns="http://www.w3.org/2000/svg" xmlns:xlink="http://www.w3.org/1999/xlink" x="0px" y="0px" viewBox="0 0 456 456"
	 style="enable-background:new 0 0 456 456;" xml:space="preserve">
<style type="text/css">
	.st0{fill:#F6B16A;}
</style>
<g>
	<path id="svg_5" class="st0" d="M134.3,142c10.7-6.4,15.2-17.9,19.4-25.6c11.9-21.8,38.4-43.4,59.1-54.5
		c33.4-17.8,62.8-14.4,75-9.7c5,1.9,8.9,4,11.5,5.5c23.1,12.5,23.5,22.7,23.4,24.9c-0.4,12.6-21.8,23.9-53.4,29.4
		c-16.3,2.6-33.3,8.2-50.1,18.1c-1.1,0.6-2.2,1.3-3.3,2c-0.3,0.2-5,3.7-5.1,10.7c-0.1,4.6,1.8,9,4.9,11.4c0.8,0.5,2.4,1.4,4.5,2.1
		c16.3,5,27.2-17.2,59.7-38.8c3.5-2.3,12.7-5.9,31.1-13c2.5-0.9,6.1-2.3,10.1-0.8c7.7,2.8,11.4,13.7,12.6,17.9
		c2.2,9.3,5,25.8,2.8,46c-0.8,7.1-3.2,29.5-14.1,46.3c-9.7,15-23.2,13.4-107.8,14.1c-1.3,0-8.6,0-18.3-1c-23.8-2.6-35.8-4-42.9-13.2
		c-8.1-10.4-9-23.6-18-29.6c-2.6-1.7-5-2.6-6.6-3.1c-0.8-0.2-8-1.8-10.9-9.6c-3.4-9.3,2.5-18.9,3.5-20.3
		C125.2,145.6,129.4,144.9,134.3,142z"/>
</g>
<g>
	<path class="st0" d="M64.7,321.1c0.2,0.1,0.4,0.2,0.6,0.3c0.2,0.1,0.4,0.2,0.5,0.2c0.2,0,0.4-0.1,0.5-0.3c-0.1-0.1-0.1-0.2-0.2-0.4
		c-0.1-0.1-0.1-0.2,0-0.3c0.2-0.4,0.4-0.7,0.8-1.1l0.8,1.1l0.3-0.3c0,0.1,0,0.1,0.1,0.1c0.2,0.4,0.4,0.4,0.6,0
		c0-0.2,0.2-0.3,0.5-0.3l0.2,0.4c0.2,0.5,0.6,0.8,1.1,0.8c2.6,0,4.6-0.1,6-0.2c0.9-0.1,2.3-0.2,4.2-0.2l7-0.1c1.3,0,2.5,0.1,3.5,0.4
		c0.6,0.1,1.1,0.2,1.5,0.4c0.4,0.1,0.8,0.3,1.1,0.4c0.2,0.1,0.4,0.1,0.5,0.2c0.2,0.1,0.4,0.1,0.6,0.2H95c0.6,0.4,1.3,0.6,2.3,0.9
		c0.9,0.2,1.7,0.4,2.2,0.6c0.1,0.1,0.4,0.1,0.7,0.2c0.4,0.1,0.6,0.3,0.7,0.7l-0.5,1.1l-1.1,1.2l-0.3,0.3c0,0.4-0.2,0.6-0.7,0.7
		c-0.1,0-0.2,0-0.3,0.1c-0.1,0.1-0.2,0.1-0.2,0.2c-0.1,0.1-0.2,0.2-0.3,0.2c-0.6,0.2-0.9,0.5-1.1,1.1c-0.1,0.2-0.2,0.4-0.3,0.4
		c-0.1,0.1-0.3,0.1-0.3,0.2l-0.4,0.4c-0.2,0.4-0.5,0.7-1,0.9c-0.1,0-0.3,0.1-0.5,0.2s-0.4,0.1-0.6,0.3c-0.2,0.1-0.5,0.2-0.7,0.3
		c-0.4,0.1-0.6,0.2-0.8,0.2c-0.3-0.1-0.6-0.1-0.8,0c-0.3,0.1-0.4,0.2-0.5,0.3l-2.6,0.5c-0.1,0-0.3,0-0.4,0c-0.2,0-0.3,0-0.4,0
		c-0.2,0.1-0.4,0.3-0.4,0.6c-0.1,0.2,0,0.4,0.1,0.8c0.1,0.8,0.2,1.4,0.2,1.8c0.1,0.4,0.1,0.9,0.1,1.6c0,0.2,0,0.3-0.1,0.4l-0.5,1.4
		c-0.4,0.6-0.5,1-0.5,1.1c-0.1,0.5-0.2,0.8-0.2,1.1l0.1,1.1c0.1,0.1,0,0.3-0.1,0.6v0.4v1.1H87c1.2-0.1,2.1-0.2,2.7-0.2
		c1.1-0.1,1.8-0.2,2.4-0.2c0.7,0,1.2,0,1.5,0.1c0.2,0.1,0.6,0.3,1.1,0.6c0.1,0,0.1,0,0.2,0.1s0.2,0.1,0.2,0.2c0,0.2,0.1,0.4,0.3,0.5
		c0.2,0.2,0.4,0.3,0.5,0.3c0.5,0.1,0.8,0.2,1,0.2c0.2,0.1,0.4,0.1,0.6,0c0.2,0,0.4,0,0.5,0h0.1l0.8,0.3c-0.4,0.5-0.6,0.8-0.6,0.9
		c-0.2,0.2-0.5,0.3-0.7,0.4c-0.3,0.1-0.5,0.3-0.7,0.4c-0.1,0-0.3,0.2-0.6,0.5L95,350c-0.1,0-0.2,0.1-0.3,0.2
		c-0.1,0.1-0.2,0.3-0.2,0.5L94,351c-0.4,0.1-0.6,0.2-0.8,0.4c-0.3,0.2-0.6,0.4-1,0.5s-0.6,0.2-0.7,0.2l-1.7,0.5
		c-0.2,0.1-0.4,0.1-0.8,0.2s-0.6,0.2-0.9,0.3c-0.2,0.1-0.5,0.1-0.8,0.3c-0.3,0.1-0.5,0.2-0.6,0.3c-0.1,0.1-0.1,0.1-0.3,0.1
		c-0.3,0.1-0.6,0.1-0.9,0c-0.3,0-0.6,0-0.9,0c-0.2,0.1-0.5,0.1-0.7,0.2s-0.4,0.2-0.7,0.2l-0.7,0.3l-1.1,0.3
		c-0.5,0.1-1.4,0.3-2.7,0.6c-0.7,0.2-1.4,0.3-2.1,0.3H76c-0.8-0.1-1.5-0.2-1.9-0.2s-1.1,0.1-2,0.2l-3.1,0.5l-0.6,0.3l-2,0.3
		c-0.3,0-0.5-0.1-0.5-0.4l-0.4-0.4c-0.1-0.1-0.2-0.2-0.3-0.2c-0.2-0.1-0.3-0.1-0.4-0.3c-0.1-0.1-0.2-0.3-0.2-0.5s0-0.3,0-0.4
		c0-0.3,0-0.6-0.1-0.8c-0.1-0.3-0.1-0.5-0.2-0.7c-0.2-0.2-0.3-0.3-0.4-0.3c-0.9-0.4-1.6-1.2-1.8-2.5c-0.1-0.2,0-0.5,0.1-0.9
		c0-0.1,0.1-0.2,0.3-0.2c0.4-0.1,0.6-0.2,0.8-0.2c0.1,0,0.2,0,0.5-0.1s0.5-0.2,0.6-0.4c0-0.1,0.1-0.1,0.2-0.1c0.4,0,1-0.1,1.7-0.3
		c0.7-0.2,1.2-0.3,1.5-0.3l2.2-0.3c1.5-0.4,2.7-0.6,3.4-0.7c0.5-0.1,1-0.1,1.5,0c0.5,0,1.1,0,1.6,0c0.3,0,0.5,0,0.7-0.1
		s0.4-0.1,0.6-0.2c0.1,0,0.2-0.1,0.2-0.3c-0.4-1.4-0.6-2.5-0.7-3.2s-0.2-1.6-0.4-2.8l-0.4-4l-0.2-1.7l-0.4-0.4h-1
		c-0.9-0.1-1.6-0.2-2.1-0.2c-0.2,0-0.5,0-0.7,0.1s-0.4,0.1-0.7,0.1c-0.6,0.1-1.5,0.1-2.6,0.1c-0.2-0.1-0.4-0.2-0.6-0.5
		c-0.1-0.3-0.2-0.5-0.3-0.6l-0.4-0.8l-0.4,0.2c-0.4-0.5-0.6-0.8-0.7-1.1c-0.1-0.1-0.1-0.1-0.1-0.3c-0.1-0.1-0.1-0.2-0.1-0.4
		c0-0.1,0-0.2-0.1-0.3c-0.2-0.2-0.3-0.5-0.1-0.7c0.1-0.1,0.2-0.2,0.2-0.3l-0.4-1.8c-0.1-0.3-0.2-0.7-0.4-1.3c0-0.1,0-0.2-0.1-0.2
		c-0.2-0.1-0.4-0.4-0.5-0.7c-0.2-0.4-0.3-0.6-0.4-0.7c-0.2-0.2-0.4-0.4-0.4-0.8v-0.3c0.2-0.4,0.5-0.6,0.8-0.6H65
		c0.4,0,0.5-0.2,0.5-0.6l-0.3-0.7c-0.2-0.2-0.3-0.4-0.3-0.7v0.1H64.7z M111,367.7l0.6-0.3c-0.1,0.1-0.1,0.1-0.2,0.2
		s-0.1,0.2-0.1,0.2c0.1,0.2,0.1,0.4,0,0.6s-0.2,0.4-0.2,0.5v0.2c0.1,0.2-0.1,0.6-0.4,1c-0.4,0.4-0.7,0.6-1,0.7
		c-0.2,0-0.3,0.1-0.4,0.2c-0.2,0.2-0.4,0.5-0.8,0.8c-0.4,0.4-0.6,0.7-0.8,1c-0.3,0.4-0.5,0.8-0.7,1.1c-0.2,0.3-0.4,0.6-0.5,0.9
		c-0.1,0.2-0.2,0.4-0.4,0.5c-0.2,0.2-0.4,0.3-0.5,0.4l-0.3,0.4c-0.5,0.9-1.1,1.6-1.8,2c-0.2,0.1-0.4,0.2-0.4,0.4
		c-0.1,0.1-0.1,0.2-0.1,0.4c0.1,0,0.1,0,0.1,0.1c0.4-0.3,0.6-0.4,0.7-0.4c0,0.1,0,0.2-0.1,0.3c-0.5,0.3-1.1,0.9-1.7,1.8
		c-0.2,0.3-0.4,0.5-0.7,0.6c-0.2,0.2-0.4,0.3-0.7,0.3h-0.2c-0.1,0-0.3-0.1-0.6-0.2c-0.2-0.1-0.5-0.1-0.7-0.1c-0.4,0.1-0.7,0.2-1,0.4
		c-0.3,0.1-0.6,0.3-0.8,0.4l-2.5,1c-0.3,0.1-0.7,0.1-1.1,0.1c-0.5,0-0.9,0-1.1,0.1c-0.4,0-0.6-0.2-0.6-0.5c-0.1,0-0.2,0.1-0.4,0.2
		c-0.2,0.1-0.4,0.1-0.6-0.2c-0.2,0.1-0.3,0-0.4-0.1s-0.2-0.3-0.2-0.3c0-0.1,0-0.1-0.1-0.1s-0.2,0-0.2-0.1c0-0.3,0-0.5,0.1-0.6
		l-1.6-0.5l0.1-1.2c-0.1,0-0.1,0-0.3,0c-0.1,0-0.2,0-0.3,0c-0.1-0.1-0.3-0.4-0.4-0.7c-0.4-0.5-0.6-0.9-0.9-1.1
		c-0.1-0.1-0.2-0.2-0.4-0.3c-0.1-0.1-0.2-0.2-0.4-0.3c-0.4-0.4-0.6-0.6-0.9-0.6c-0.1-0.1-0.2-0.1-0.3-0.2c-0.1-0.1-0.2-0.2-0.2-0.4
		l-0.3-0.3c-0.2-0.1-0.4-0.1-0.6-0.2c-0.1-0.1-0.3-0.3-0.4-0.5l-1,0.2v-0.1l-0.4-0.3c-0.3-0.1-0.7-0.4-1.3-0.7v-0.1
		c0.1-0.1,0.2-0.1,0.4-0.2c0.1-0.1,0.2-0.1,0.4-0.1c0.9,0.1,2-0.2,3.1-0.9l2.6-1.8l2.6-2.2l0.7-0.6c0.9-0.7,2.1-1.5,3.7-2.4
		c2.9-1.8,4.5-2.9,4.9-3.2c0.6-0.4,1.4-1.1,2.5-2l1.5-1.2c1.4-1.2,2.5-2.1,3.2-2.8c0.3-0.3,1.2-1.2,2.6-2.8l1.7-1.8l1.3-1.7l0.4-0.5
		l2.4-3.3l0.9-1.1l0.6-1.1c0.4-0.4,0.8-1.1,1.4-2l1.7-2.4c0.6-0.8,1.2-1.6,1.6-2.5l1.2-2.2l1.3-2.6c0.2-0.4,0.5-1,0.9-1.8
		c0.1-0.2,0-0.4-0.3-0.6c-0.9-0.5-1.6-0.8-2.1-0.8c-0.2-0.1-0.4-0.1-0.7,0c-0.3,0.1-0.5,0.1-0.7,0.1c-0.1,0-0.4-0.1-1.1-0.3L118,329
		c-0.2-0.1-0.5-0.3-0.7-0.6c-0.3-0.3-0.5-0.5-0.7-0.7c-0.4-0.3-0.7-0.6-1-1l-0.2-0.7c0.2,0.1,0.4,0.1,0.6,0.1
		c0.2,0.1,0.4,0.1,0.8,0.1s1-0.1,1.7-0.2l2.6-0.2h1c1.1,0.1,1.8,0.2,2.3,0.2l1.1-0.1h0.5c0.4,0.1,0.6,0,0.7-0.3
		c0.3-0.8,0.8-1.9,1.5-3.4l1.1-2.3c0.2-0.5,0.4-0.9,0.5-1.2c0.1-0.4,0.2-0.6,0.3-0.9l1.1-3c0.1-0.3,0.1-0.8,0.1-1.4v-0.8
		c0-0.1,0.1-0.1,0.2-0.3h0.1c-0.1-0.3,0.1-0.6,0.4-0.9c0.3-0.3,0.5-0.5,0.5-0.7c0-0.1,0-0.1,0.1-0.2s0.1-0.1,0.2-0.1
		c0.2-0.1,0.5-0.1,0.9-0.2s0.7-0.1,1-0.1c0.4,0,0.6,0.3,0.7,0.9c0.2,0.5,0.3,0.8,0.4,0.9c0.1,0.2,0.3,0.3,0.4,0.4
		c0.4,0,0.6,0.2,0.7,0.7c0.1,0.4,0.3,0.7,0.8,1c0.3,0.7,0.4,1.1,0.4,1.1c0.2,0.6,0.4,1.1,0.4,1.4l-0.1,0.4c0,0.1-0.1,0.1-0.2,0.3
		l-0.4,0.5c-0.1,0.2-0.1,0.3-0.3,0.3c-0.4,0.2-0.7,0.5-1,1.1l-2.6,5.3l-2.1,4.1c-0.1,0.3,0,0.6,0.3,0.8c0.9,0.6,1.6,1.3,1.8,2.1
		c0.1,0.1,0.3,0.4,0.7,1c0.2,0.5,0.3,0.8,0.4,0.9c0,0.1,0,0.2,0.1,0.4c0.1,0.2,0.2,0.4,0.4,0.5l0.1,0.1c0.1,0.4,0.2,0.9,0.4,1.8
		c0,0.2,0,0.3,0.1,0.4c0.4,0.5,0.6,1.2,0.7,2c0.1,0.8,0.2,1.3,0.3,1.5c0.1,0.3,0.1,0.6,0.1,0.9s0.1,0.6,0.1,0.9
		c0.1,0.5,0.2,1.1,0.2,2s0,1.6-0.1,2.1v2.2c0,0.9,0,1.7-0.1,2.2c0,0.7-0.1,1.7-0.4,3l-1.1,4c-0.2,0.6-0.5,1.6-1,2.9
		c-0.4,1.1-1,2.1-1.9,2.8c-0.2,0.1-0.4,0.2-0.6,0.2c-0.1,0-0.3,0-0.6-0.1c-0.4-0.1-0.6-0.2-0.8-0.4c-0.1-0.1-0.1-0.1-0.2-0.1
		c-0.1,0-0.1,0-0.1,0c-0.2,0.1-0.5,0.1-0.7,0c-0.3-0.1-0.5-0.1-0.7-0.1c-0.1,0.1-0.2,0-0.4-0.2c-0.4-0.7-0.6-1.2-0.6-1.6
		c-0.1-0.3-0.2-0.8-0.4-1.5c-0.1-1.3,0-2.6,0.3-3.8c0.1-0.2,0.1-0.4,0-0.5c-0.1-0.2-0.1-0.4,0-0.5c0.1-0.1,0.1-0.2,0.2-0.4
		c0.1-0.1,0.2-0.3,0.2-0.4l0.5-2.5c0.4-1.5,0.6-3.5,0.6-6.1c-0.1-0.3-0.1-0.6,0-1s0.1-0.7,0-1.1c0-1.4-0.1-2.4-0.2-3.1
		c-0.1-0.8-0.4-2.1-0.9-3.9c-0.1-0.2-0.1-0.3-0.3-0.3c-0.1,0-0.2,0-0.4,0.1c-0.4,0.4-0.6,0.8-0.8,1.2c-0.2,0.4-0.4,0.7-0.5,1.1
		c-0.2,0.4-0.3,0.7-0.4,1l-0.7,1.8l-0.7,1.4c-0.2,0.6-0.4,1-0.6,1.2l-1.4,2l-0.5,1l-1.8,4.1c-0.1,0.2-0.3,0.5-0.5,0.7
		c-0.2,0.3-0.4,0.5-0.5,0.7s-0.2,0.5-0.4,0.8c-0.1,0.3-0.3,0.6-0.5,0.9l-0.9,1.5c-0.2,0.2-0.3,0.3-0.4,0.5c-0.1,0.1-0.1,0.3-0.2,0.4
		l-1.8,3.2c-0.2,0.3-0.4,0.6-0.6,0.9s-0.4,0.6-0.7,1.1c-0.6,1.1-1,1.8-1.1,2.3c-0.1,0.4-0.2,0.8-0.4,1.2c-0.2,0.4-0.4,0.7-0.5,0.9
		L111,367.7z"/>
	<path class="st0" d="M166,351.5v0.4l-0.1,1.6c-0.1,0.3-0.1,0.6,0,0.8c0,0.3,0,0.5,0,0.7c0,1.1,0,2-0.1,2.6c0,0.2,0,0.5,0,0.9
		s-0.1,0.8-0.2,1.2c-0.2,0.9-0.4,1.8-0.4,2.8c0,0.6,0,1.1,0.1,1.4s0.1,0.6,0.2,1.1c0.1,0.4,0.1,0.8,0.1,1.1c0,0.4-0.1,1-0.2,1.8
		c-0.1,0.9-0.4,2.1-0.7,3.5c-0.1,0.9-0.3,1.5-0.6,1.8v0.1v0.2c0,0.4-0.1,0.7-0.4,0.9c-0.3,0.3-0.4,0.5-0.5,0.6l-1,1.3
		c-0.1,0.2-0.3,0.4-0.5,0.7c-0.2,0.3-0.4,0.5-0.6,0.7c-0.4,0.4-0.9,0.8-1.8,1.4c-0.9,0.6-2,0.9-3.3,1.1h-0.4c-0.5,0-0.8-0.1-1-0.4
		c-0.1-0.1-0.1-0.1-0.3,0c-0.1,0-0.2,0-0.3,0c-0.5,0-0.9-0.1-1.1-0.4c-0.1-0.1-0.1-0.1-0.3-0.1h-0.2c-0.2,0-0.6-0.1-1.2-0.4
		l-0.7-0.2c-0.1-0.1-0.1-0.1-0.2-0.1s-0.2,0-0.2-0.1l-1.1-1.1v-0.1c0-0.7,0-1.2,0.1-1.6v-0.3c0-0.2-0.1-0.4-0.4-0.6
		c-0.2-0.1-0.4-0.2-0.4-0.4c-0.1-0.1-0.1-0.1,0-0.2c0-0.1,0-0.2,0-0.2l0.3-1.3c0-0.2,0.1-0.4,0.2-0.8l0.4-1.1c0-0.4,0.1-0.7,0.4-0.8
		l0.1-0.2v-0.2c0-0.2,0.2-0.6,0.6-1c0-0.1,0-0.2,0.1-0.2s0.1-0.1,0.1-0.1c0-0.8,0.4-1.3,1.1-1.3l-0.1,0.5l0.1,1.1
		c0.1,0.4,0.3,0.4,0.6,0.3c0.3-0.2,0.6-0.3,0.8-0.4c0.3-0.1,0.5-0.3,0.8-0.4c0.2-0.1,0.5-0.3,0.9-0.6c0.4-0.3,0.8-0.5,1-0.8
		c0.8-1.1,1.2-1.8,1.3-1.9c0.1-0.2,0.2-0.4,0.3-0.7c0.1-0.3,0.1-0.5,0.2-0.7c0.1-0.7,0.2-1.2,0.4-1.6c0.1-0.7,0.2-1.3,0.4-1.7l0.3-1
		c0.1-0.7,0.2-1.3,0.4-1.8c0.1-0.2,0.1-0.4,0.2-0.6c0.1-0.2,0.2-0.4,0.2-0.6l0.5-2.8c0.1-0.4,0.1-0.9,0.1-1.7l0.2-2l0.1-2.5V345
		c0-0.1,0-0.2,0.1-0.4c0.1-0.1,0.1-0.3,0.1-0.4c0-0.3-0.1-0.4-0.4-0.2c-0.5,0.3-1.2,0.6-2,0.9s-1.4,0.5-1.8,0.7
		c-0.2,0.1-0.5,0.2-1.1,0.4c-0.5,0.2-1,0.5-1.3,0.9c-0.1,0.2-0.3,0.4-0.6,0.4s-0.5,0-0.6,0s-0.3,0.1-0.5,0.2c-0.1,0-0.2,0-0.3,0.1
		s-0.3,0-0.4-0.2c-0.2-0.2-0.5-0.4-1.1-0.4H150c-0.7,0-1.2-0.3-1.5-0.8l-0.2-1v-1.7c0-0.4-0.1-0.7-0.4-1.1c-0.2-0.2-0.2-0.5,0-0.8
		l1.6-1.9l0.4-0.2c0.2,0,0.3,0,0.3-0.1c0.2-0.2,0.3-0.2,0.4-0.2c0.1,0.1,0.2,0.1,0.3,0.3c0,0.1,0.1,0.2,0.2,0.3
		c0.1,0.1,0.3,0.2,0.5,0.2c0.1,0,0.1,0,0.1,0v0.1l1.1,1.5c0.4-0.2,0.8-0.4,1.1-0.4c0.4-0.2,1.3-0.5,2.7-0.9l1-0.4
		c0.5-0.1,1-0.2,1.7-0.4c0.6-0.1,1.4-0.3,2.3-0.4c0.2-0.1,0.6-0.1,1.1-0.1c0.6,0,1.1,0.1,1.5,0.4c0.1,0.1,0.1,0.2,0,0.4
		c-0.1,0.2-0.2,0.3-0.1,0.5c0,0.1,0.1,0.2,0.3,0.3c0.8,0.3,1.2,0.9,1.2,1.9c0,1.1,0,1.9,0.1,2.5c0,0.6,0.1,1.6,0.2,2.7
		C165.9,349.5,165.9,350.7,166,351.5z M151.7,326.8l-0.2-0.1c0.4-0.6,1-0.9,1.8-0.8h0.2l0.7-0.2c0.4-0.1,0.6-0.2,0.8-0.4
		c0.9-0.6,1.8-1,2.8-1.3c0.8-0.4,1.8-0.5,2.8-0.4h0.3c0.2,0,0.6-0.1,1.1-0.2l0.5-0.1h2.3h0.4c0.2,0,0.3,0,0.4,0.1
		c0.1,0.1,0.1,0.2,0.1,0.4l0.1,0.5c0,0.4,0,0.9-0.1,1.3c-0.1,0.5-0.2,0.9-0.5,1.1l-0.4,0.9l-0.4,0.3c-0.3,0.2-0.5,0.4-0.7,0.7
		c-0.1,0.1-0.3,0.4-0.8,0.9l-0.5,0.6l-0.2,0.3c-0.8,0.5-1.5,0.8-1.9,1c-0.2,0.1-0.4,0.1-0.6,0.2c-0.2,0.1-0.4,0.2-0.6,0.2
		c-0.5,0.4-1,0.4-1.5,0.2c-0.2-0.1-0.4-0.1-0.5,0c-0.2,0-0.3,0-0.4,0h-0.2c-0.6,0-1.2-0.4-1.8-1.1c-0.1-0.2-0.3-0.4-0.4-0.8
		c-0.2-0.4-0.4-0.6-0.5-0.8c-0.3-0.2-0.6-0.7-0.8-1.3C152.4,327.5,152.1,327,151.7,326.8z M183.5,367.7c0.1,0.1,0.1,0.3,0.1,0.6
		c0,0.2-0.1,0.5-0.2,0.7c-0.2,0.3-0.3,0.6-0.5,0.8c-0.1,0.2-0.3,0.4-0.4,0.6c-0.1,0.4-0.3,0.7-0.4,1.1c-0.2,0.4-0.4,0.8-0.5,1.2
		c-0.1,0.4-0.1,0.7,0,0.9c0.1,0.1,0.1,0.2,0.1,0.4c-0.1,0.1-0.1,0.3-0.1,0.5c0,0.5,0.2,1,0.5,1.3c0.2,0.4,0.2,0.6-0.1,0.9
		c-0.2,0.2-0.2,0.4,0.1,0.4c0.2,0.1,0.4,0.3,0.4,0.6c0.1,0.1,0,0.2-0.2,0.4c-0.2,0.2-0.3,0.3-0.3,0.4c-0.1,0.2-0.3,0.4-0.6,0.5
		c-0.4,0.1-0.6,0.3-0.6,0.8l-0.3,0.5c-0.1,0.1-0.1,0.1-0.2,0c-0.1,0-0.2-0.1-0.2-0.1l-2.3-0.9c-0.2-0.1-0.3-0.2-0.4-0.5l-0.3-0.3
		c-0.3,0-0.5-0.2-0.6-0.6c-0.2-0.4-0.5-0.6-1.1-0.6c-0.2,0.1-0.4,0.1-0.5,0c-0.2,0-0.3,0-0.4,0c-0.2,0-0.3-0.1-0.2-0.4l0.4-1.7
		c0.1-0.2,0.2-0.3,0.5-0.4c0.4-0.1,0.4-0.3,0.3-0.6c0-0.2,0-0.4,0.1-0.4c0.2-0.1,0.5-0.2,0.7-0.4s0.6-0.3,0.9-0.5
		c0.4-0.2,0.8-0.4,1.1-0.8c0.4-0.2,0.7-0.5,1.1-0.8c0.4-0.3,0.8-0.6,1.2-1c0.6-0.5,1.4-1.2,2.5-2.3L183.5,367.7z M229.9,319.8
		c0.1,0.1,0.1,0.3,0,0.7c0,0.1-0.1,0.4-0.4,1.1v0.3c-0.1,0.1-0.1,0.1-0.1,0.2s0,0.2-0.1,0.2c-0.2,0.1-0.3,0.2-0.3,0.4
		c0,0.1,0.1,0.3,0.2,0.5l0.3,0.4c-0.6,0.6-1.1,1.1-1.5,1.3c-0.2,0.2-0.5,0.5-1,0.9c-0.1,0.1-0.2,0.1-0.3,0.1c-0.2-0.1-0.3,0-0.4,0.1
		c-0.1,0.1-0.1,0.2,0,0.4l0.1,0.2v0.3c0,0.7-0.4,1.1-1.1,1.1c-0.2,0-0.3,0-0.4,0.1l-0.8,0.4l-0.3,0.2c-0.2,0.4-0.6,0.4-1.1,0.2
		c-0.2,0-0.4,0-0.5,0.1c-0.5,0.3-1.2,0.4-2,0.4l-0.8,0.1c-0.3,0.1-0.7,0.1-1.3,0.1c-0.5,0.1-1.4,0.1-2.5,0.1c-0.3,0-0.6,0-1.1,0.1
		c-0.4,0.1-0.7,0.1-1,0h-0.4l-1.6,0.1l-0.4,0.2h-0.8c-1.2,0.2-2.2,0.2-3.1,0.2c-0.4-0.1-0.7-0.1-1,0c-0.3,0-0.5,0-0.7,0h-0.1
		c-0.2-0.1-0.5-0.2-0.9-0.2l-1.5,0.1c-0.3,0-0.6,0-1-0.1s-0.8-0.1-1.2-0.1H200c-0.2,0-0.5,0-0.8,0s-0.6,0-1.1,0c-0.1,0-0.2,0-0.4,0
		s-0.4,0-0.6,0c-0.1,0-0.3,0.1-0.6,0.2c0-0.1-0.1-0.2-0.3-0.3c-0.1,0.2-0.3,0.4-0.6,0.4c-0.4,0-0.6,0.1-0.8,0.2l-0.8-0.4
		c-0.2,0.4-0.6,0.5-1.1,0.3h-0.1c-0.5,0.2-1.1,0.2-1.8,0.2c-0.7-0.1-1.3-0.1-1.6-0.1c-1.7,0-3,0-3.9,0.1c-0.2,0.1-0.5,0.1-0.7,0.2
		s-0.5,0.1-0.7,0.1c-0.5,0.1-0.9,0.2-1.4,0.4c-0.5,0.2-0.8,0.4-0.9,0.4c-0.2,0-0.3,0-0.4,0.1l-1.5,0.6l-0.4-0.2
		c-0.1,0.3-0.2,0.4-0.4,0.4s-0.4-0.1-0.6-0.2c-0.2-0.1-0.3-0.2-0.4-0.3c-0.1-0.1-0.4-0.1-0.8-0.1c-0.5,0-1.1-0.3-1.6-1
		c-0.2-0.4-0.4-0.6-0.6-0.8c-0.1-0.2-0.2-0.4-0.3-0.7c-0.1-0.3-0.1-0.6-0.3-0.8c-0.1-0.1,0-0.2,0.2-0.5c0.1-0.4,0.2-0.7,0.4-0.9
		c0.1-0.3,0.2-0.5,0.3-0.7s0.1-0.5,0.1-0.9c0-0.5-0.1-1-0.3-1.5l-0.2-0.7c-0.1-0.2-0.1-0.4-0.1-0.6v-0.1l0.7-0.9
		c0.1-0.1,0.1-0.1,0.2,0c0.1,0,0.2,0,0.2,0c0.1,0,0.2,0,0.4,0.1s0.3,0.1,0.4,0c0.4-0.2,0.9-0.2,1.3-0.1c0.2,0.1,0.4,0.1,0.7,0.1
		c0.6,0,1,0.1,1.2,0.3c0.3,0.2,0.6,0.4,1.1,0.4c0.2,0,0.6-0.1,1.2-0.2c1,0,1.7-0.1,2.2-0.2l2.5-0.6c0.9-0.2,2.2-0.4,4-0.6l1.6-0.4
		h0.1c0.1,0.1,0.3,0.1,0.5,0.1c0.4,0,0.7-0.1,1-0.3c0.1-0.1,0.2-0.1,0.4-0.1l1.7-0.2c0.2-0.1,0.3-0.2,0.4-0.4c0.1-0.2,0.1-0.4,0-0.7
		l-0.3-2.2c-0.1-0.4-0.1-0.9-0.1-1.6c0-0.5,0.1-1.4,0.2-2.6c0.1-0.5,0.2-1,0.2-1.4s0-0.7,0-0.9c0-0.3,0-0.5,0.1-0.5
		c0.1-0.2,0.2-0.4,0.4-0.7c0.1-0.3,0.3-0.5,0.6-0.7c0.3,0,0.5,0,0.5,0.1l0.8,1.4c0.2,0.4,0.4,0.6,0.7,0.9c0.1,0.1,0.2,0.2,0.3,0.4
		c0.1,0.2,0.2,0.4,0.2,0.5c0.1,0.1,0.1,0.1,0.2,0.3c0.1,0.1,0.1,0.2,0.2,0.2c0.5,0.2,0.8,0.5,0.9,0.9c0.1,0.4,0.2,0.7,0.3,0.7
		c0.1,0.2,0.2,0.6,0.4,1.1c0.1,0.1,0.1,0.2,0.1,0.4c0,0.2-0.1,0.6-0.2,1.1c-0.1,0.5-0.3,0.9-0.3,1.3c0,0.8-0.1,1.3-0.4,1.6v0.1
		c0.8,0.1,1.4,0.2,1.8,0.2l5.5-0.4c0.5,0,1.1-0.1,1.9-0.2c0.7-0.1,1.7-0.1,3-0.2s2.4-0.1,3.4-0.1c0.6,0,1.5,0.1,2.6,0.2
		c1.8,0,3.1,0,4,0.1c0.8,0.1,2,0.2,3.5,0.4l1.4,0.1C229.6,319.7,229.8,319.7,229.9,319.8z M177.6,339.4c0-0.1,0-0.3,0.1-0.5
		s0.1-0.4,0-0.7l0.2-0.1c0.2-0.1,0.4-0.2,0.5-0.4c0.1-0.2,0.1-0.4,0.1-0.6c0.2,0.1,0.4,0.2,0.8,0.2c0.1,0,0.2,0,0.4,0
		s0.4,0.1,0.5,0.3c0.1,0.1,0.1,0.1,0.2,0c0.1,0,0.1,0,0.2,0l2.1-0.6c1.2-0.5,2.1-0.8,2.6-1c0.2-0.1,0.4-0.2,0.6-0.2
		c0.2,0,0.3,0,0.4,0c0.6-0.1,1-0.2,1.2-0.4l0.4-0.1l4.1-0.5c0.4-0.1,0.8-0.1,1.3-0.2s0.9-0.1,1.2-0.1c0.8-0.1,1.9-0.1,3.4-0.1
		l0.8-0.1h1.3c0.2-0.1,0.6-0.1,1.1-0.1c0.6,0,1.1,0,1.5,0.1h0.3c1.7,0,3.4,0.1,5.2,0.3c1.1,0.1,2.4,0.2,4.1,0.4l2.3,0.5
		c0.8,0.2,1.5,0.4,1.9,0.4c0.4,0.1,0.6,0.3,0.6,0.6c0.1,0.1,0.1,0.2,0.2,0.3c0.1,0.1,0.2,0.1,0.2,0.3c0.2,0.5,0.4,0.8,0.4,1.1
		c0.1,0.2,0.2,0.6,0.4,1.1c0.2,0.4,0.2,0.7-0.2,0.9c-0.2,0.1-0.6,0.4-1,0.8c-0.1,0-0.1,0.1-0.3,0.4c-0.4,1.5-0.9,2.7-1.5,3.6
		l-0.3,0.8c-0.2,0.6-0.6,0.9-1,0.9c-0.1,0-0.2,0.1-0.4,0.3c-0.2,0.2-0.4,0.4-0.6,0.6v0.1c0.1,0.1,0.1,0.1,0.2,0.2
		c0.1,0.1,0.1,0.1,0.1,0.3c0,0.2-0.1,0.4-0.2,0.6c-0.1,0.2-0.3,0.4-0.4,0.4c-0.5,0.4-1.1,0.5-1.7,0.4l-0.3-0.1
		c-0.3,0-0.5,0.1-0.7,0.4c-0.2,0.2-0.2,0.5-0.2,0.9c0.1,0.2,0,0.4-0.1,0.5s-0.2,0.1-0.4,0h-0.5c-0.6,0-1.4,0.1-2.2,0.3l-4.1,0.5
		c-0.4,0.1-0.9,0.1-1.6,0.1c-0.1,0-0.2,0-0.4-0.1c-0.1-0.1-0.3-0.1-0.5-0.1c-0.1-0.1-0.3-0.1-0.5-0.1h-1.3l-2,0.1H194l-2,0.1
		c-0.7,0.1-1.3,0.2-1.8,0.4l-2.8,1c-0.2,0.1-0.3,0.2-0.5,0.4c-0.1,0.1-0.3,0.2-0.5,0.4c-0.5,0.4-1,0.6-1.7,0.6
		c-0.5,0-1.1-0.1-1.7-0.4c-0.3-0.2-0.6-0.5-0.8-0.9s-0.4-0.8-0.4-1.1c0-0.2-0.1-0.5-0.4-0.7c-0.1-0.1-0.4-0.2-0.8-0.4
		c-0.7-0.2-1.2-0.8-1.5-1.6l-0.6-1.5c-0.4-0.8-0.5-1.9-0.4-3.3c0-0.4,0-0.8,0.1-1.1c0.1-0.4,0.1-0.7,0.1-1.1V342
		c0-0.4-0.1-0.8-0.4-1.1C178.3,340.7,178,340.2,177.6,339.4L177.6,339.4z M187.2,360.8l-1.6,0.2h-0.3H185c-0.8,0-1.4,0.2-1.6,0.7
		c-0.4,0.5-0.8,0.8-1.3,1c-0.6,0.1-1.1,0.2-1.4,0.2s-0.7-0.2-0.9-0.6c-0.3-0.4-0.4-0.7-0.4-1.1c0-0.2,0.1-0.5,0.2-0.9
		c-0.2-0.1-0.4-0.2-0.6-0.4c-0.1-0.2-0.2-0.4-0.2-0.4c0-0.1,0.1-0.3,0.4-0.6c0.3-0.2,0.4-0.5,0.3-0.7c-0.1-0.1,0.1-0.3,0.4-0.6
		c0.1-0.1,0.3-0.2,0.6-0.4h0.1c0.3,0.3,0.6,0.4,1.1,0.4c0.4,0,0.7,0,0.9-0.1l2.2-0.4c0.6-0.2,1.8-0.4,3.5-0.6
		c0.5-0.1,1.4-0.2,2.7-0.4l2.5-0.3c1.5-0.2,2.8-0.2,4.1-0.2c0.8,0,1.4,0,1.8-0.1l3.7-0.3l2.4,0.1c0.2,0,0.6-0.1,1.2-0.2
		c0.1,0,0.2-0.1,0.4-0.4v0.1l0.7-0.1c0.1,0,0.2,0,0.3,0s0.2,0,0.3,0c0.4,0.3,1,0.4,1.8,0.4h0.6c-0.3,0.4-0.2,0.6,0.2,0.7
		c0.4,0.2,0.6,0.4,0.6,0.8c0,0.5-0.3,0.9-0.8,1c-0.9,0.3-1.4,0.5-1.7,0.6c-0.2,0-0.3,0.1-0.4,0.4c-0.1,0.1-0.1,0.3-0.1,0.6
		c0,0.3-0.2,0.5-0.4,0.5l-1.2,0.4c-0.2,0.1-0.4,0.1-0.6,0.2c-0.2,0.1-0.5,0.1-0.9,0.1l-4.3,0.2H200l-2.7-0.1l-1.2,0.1l-5-0.3
		l-2.3,0.1L187.2,360.8z M183.6,345.5l0.1,1.6c0.1,0.2,0.1,0.4,0.2,0.4c0.1,0,0.2,0,0.4-0.1c0.1,0.2,0.2,0.4,0.4,0.4
		c0.1,0.2,0.3,0.3,0.4,0.3l1.4-0.1c0.2-0.1,0.4-0.1,0.8-0.1c-0.2-0.5-0.3-0.8-0.3-1.1c0-0.3,0-0.5,0.1-0.7s0.1-0.5,0.2-0.8
		c0.1-0.3,0.1-0.6,0.1-0.8c0-0.4-0.1-0.6-0.3-0.9c-0.1-0.1-0.1-0.2-0.2-0.4c-0.1-0.2-0.2-0.2-0.4-0.2c-1.3,0.3-2.2,0.9-2.8,1.7
		C183.7,344.9,183.6,345.2,183.6,345.5z M227,372.9c-0.1,0.2-0.2,0.5-0.3,0.9s-0.3,0.7-0.6,1l-1,1.4l-0.1,0.1v0.1
		c0,0.1-0.1,0.3-0.2,0.5c-0.1,0.2-0.2,0.4-0.2,0.5l-0.3,0.4l-1,0.7c-0.1,0.1-0.1,0.2-0.1,0.3v0.2c0,0.2-0.2,0.4-0.7,0.5
		c0.3,0.2,0.4,0.5,0.4,0.7c-0.1,0.2-0.1,0.4-0.1,0.5s-0.1,0.2-0.2,0.3c-0.1,0.1-0.2,0.2-0.4,0.2c-0.3,0.2-0.6,0.4-1,0.4l-0.5,0.2
		c-0.1,0.2-0.2,0.3-0.5,0.4s-0.5,0.2-0.8,0.2h-0.1c-0.2,0-0.4,0-0.7,0.1s-0.5,0.1-0.7,0h0.1c-0.2,0-0.4,0-0.7,0.1s-0.5,0.2-0.6,0.2
		c-0.2,0.1-0.5,0.1-0.9,0.3c-0.4,0.1-0.7,0.2-1.1,0.3c-1.1,0.1-2.6,0.1-4.7,0.1c-0.6,0-1.2,0-1.8-0.1s-1.1-0.1-1.6-0.1
		c-0.9,0-1.8-0.1-2.7-0.3c-0.6-0.2-1.3-0.4-1.8-0.6c-0.6-0.2-1.1-0.4-1.7-0.6c-0.6-0.3-1.3-0.5-1.9-0.5c-0.9-0.1-1.9-0.4-3-0.9
		l-0.6-0.4c-0.8-0.4-1.4-0.7-1.8-1.1c-0.2-0.2-0.6-0.5-1-0.7s-0.7-0.4-0.9-0.5c-1.2-0.8-2.1-1.8-2.6-3.1c-0.1-0.2-0.4-0.7-1.1-1.7
		c-0.4-0.4-0.5-0.8-0.5-1.3c0-0.4,0.1-0.7,0.2-0.9c0.1-0.2,0.2-0.5,0.3-0.7s0.1-0.4,0.2-0.6c0.2-0.2,0.4-0.5,0.6-0.9
		c0.2-0.4,0.4-0.7,0.5-0.9c0.2-0.6,0.6-1.1,1.1-1.5c0.1-0.1,0.1-0.1,0.1-0.3c0-0.1,0-0.2,0.1-0.3l0.3-0.5l0.3-0.9
		c0.1,0.1,0.3,0.3,0.4,0.4c0.2,0.1,0.4,0.3,0.5,0.5c0.2,0.2,0.3,0.6,0.4,1.1c0.1,0.2,0.2,0.6,0.2,1.1c0.1,0.1,0.1,0.3,0.1,0.5
		s0,0.5,0.1,0.8c0.1,0.4,0.1,0.7,0.2,0.9c0.3,1.1,0.7,1.9,1.1,2.5c0.4,0.6,1.2,0.9,2.2,0.8l2.1-3.5c0.2-0.4,0.5-0.7,0.7-1
		s0.4-0.6,0.6-0.8c0.4-0.4,0.7-0.8,1-1.2c0.1-0.2,0.3-0.4,0.5-0.7c0.2-0.3,0.4-0.5,0.6-0.8c0.1-0.2,0.2-0.4,0.3-0.6s0.1-0.4,0.1-0.5
		c0-0.2,0.1-0.4,0.4-0.4c0.4,0.2,0.6,0.1,0.7-0.1l0.3,0.1c0.1,0.1,0.4,0.4,0.7,0.7c0.4,0.4,0.7,0.8,0.8,1.2v0.2
		c-0.1,0.7-0.2,1.2-0.4,1.5c0,0.1-0.1,0.2-0.3,0.4c-0.4,0.2-0.8,0.6-1.2,1.3l-2.3,2.6l-1.9,1.8c-0.1,0.1-0.2,0.1-0.4,0.1
		s-0.3,0-0.3,0.1c-0.2,0.1-0.4,0.1-0.5,0.3c-0.2,0.1-0.4,0.2-0.5,0.3l1,0.3c0.8,0.1,2.1,0.4,3.7,0.7c0.5,0.1,0.7,0,0.7-0.4
		c0-0.1,0-0.2,0.1-0.2s0.2,0,0.3,0c0.1,0.1,0.3,0.1,0.4,0c0.4-0.2,0.7-0.4,0.9-0.7c0.3-0.3,0.4-0.5,0.5-0.6l1.4-1.8
		c0.7-0.9,1.1-1.3,1.1-1.4l0.7-0.6c0.4-0.4,0.9-0.8,1.4-1.3s1-0.9,1.4-1.2c0.1-0.1,0.2-0.2,0.4-0.4c0.1-0.2,0.2-0.4,0.4-0.5l0.5-0.2
		l0.1-0.1l1.2,1.2c0.6,0.8,1,1.5,1,2.1c0,0.4-0.1,0.7-0.3,1.1c-0.1,0.1-0.2,0.4-0.4,0.8s-0.4,0.8-0.7,1.1l-0.3,0.4
		c-0.4,0.6-0.8,1.2-1.5,1.7c-0.6,0.5-1,0.8-1.1,0.9s-0.5,0.3-1.1,0.6v0.2h1.1l4.5-0.2l3.5-0.3c0.5,0,1.1,0,1.8,0s1.5-0.1,2.5-0.2
		c1.6-0.2,2.8-1.1,3.4-2.6c0.1-0.3,0.3-0.4,0.6-0.4c0.1,0.1,0.2,0.1,0.3,0s0.2-0.1,0.3-0.2C227.1,371.9,227.2,372.3,227,372.9z
		 M191.9,342.4c0,0.1,0.1,0.4,0.3,0.9l0.3,0.3c0.3,0.4,0.4,0.6,0.4,0.7l0.2,2c0,0.1,0,0.2,0.1,0.4c0.1,0.2,0.3,0.4,0.6,0.4
		c0.6,0,1,0,1.3-0.1l2.7-0.3c0.6-0.1,1-0.1,1.2-0.3c0.1-0.1,0.2-0.4,0.2-0.9v-0.4l-0.4-2.9c0-0.3,0-0.5-0.1-0.7l-0.7-0.1
		c-0.4,0.1-0.8,0.1-1.2,0c-0.4,0-0.8,0-1.2,0l-3,0.5C192.3,342.1,192.1,342.2,191.9,342.4z M203.3,346h0.5l2.5-0.1l2.4,0.1
		c0.5,0,0.9,0,1.1-0.1c0.4-0.1,0.6-0.2,0.6-0.4l-0.1-2.1c-0.1-0.4-0.1-0.9-0.1-1.7c0-0.4-0.2-0.6-0.5-0.4l-1.5,0.1h-0.6
		c-0.6,0-1.1,0-1.5-0.1c-0.2,0-0.3,0.1-0.4,0.2c-0.1,0.1-0.1,0.3-0.1,0.4c0.1,0.1,0.1,0.3,0.1,0.6c0,0.4-0.1,0.8-0.3,1.1
		c-0.1,0.1-0.3,0.5-0.6,1.1C204.4,345.3,204,345.7,203.3,346C203.4,345.8,203.3,345.9,203.3,346z"/>
	<path class="st0" d="M308.9,326.4c-0.2,0.1-0.3,0.1-0.3,0.3c0,0.1,0,0.3,0.1,0.4c0.1,0.2,0.2,0.5,0.2,0.7s0,0.3-0.1,0.4
		c-0.2,0.4-0.5,0.6-1.1,0.6h-0.9c-0.5,0-1.1,0.1-1.9,0.2c-0.1,0-0.3,0-0.5,0.1s-0.4,0.1-0.6,0.2c-0.1,0.1-0.6,0.4-1.5,1
		c-0.5,0.2-0.8,0.4-1.1,0.4l-2.6,0.3c-0.4,0.1-1,0.1-1.8,0.1l-0.9,0.3c0.2,0.2,0.4,0.4,0.8,0.5c0.7,0.3,1.2,0.7,1.6,1.1
		c0.1,0.2,0.3,0.4,0.4,0.6c0.2,0.2,0.3,0.4,0.4,0.6c0.6,0.8,1,1.5,1,2.1c0,0.4-0.1,0.8-0.4,1.1c-0.1,0.1-0.2,0.2-0.2,0.3l-1,3.2
		c-0.1,0.2-0.1,0.4-0.2,0.7c-0.1,0.3-0.1,0.6-0.3,0.7c-0.2,0.4-0.5,1-0.7,1.7c-0.3,0.7-0.6,1.3-1,1.7c-0.5,0.4-1.1,1.1-1.8,2.2
		c-0.1,0.3-0.3,0.4-0.6,0.4c-0.1,0-0.2,0-0.3,0.1c-0.1,0.1-0.1,0.1-0.1,0.3c0.8,0,1.4,0,1.8-0.1l8.8-0.7c0.5-0.1,1-0.1,1.7-0.3
		c0.6-0.1,1.4-0.2,2.2-0.3c0.9-0.1,2.2-0.2,4-0.2c1.6,0,3.2,0.1,4.8,0.3c0.3,0,0.7,0.1,1.3,0.2c0.1,0,0.2,0,0.3,0.1
		c0.1,0.1,0.2,0.1,0.2,0.2c-0.4,0.5-0.7,0.9-0.8,1.2c-0.1,0.1-0.1,0.1,0,0.2c0,0.1,0,0.2,0,0.2v0.2c-0.2,0.2-0.3,0.5-0.3,0.7
		l0.1,0.7c-0.1,0.2-0.2,0.4-0.3,0.7c-0.1,0.3-0.1,0.6-0.2,0.7c0,0.1,0,0.1-0.1,0.2s-0.1,0.1,0,0.2s0,0.3-0.3,0.5
		c-0.4,0.2-0.6,0.4-0.8,0.6l-0.2,0.3c-0.2,0.5-0.6,0.8-1.1,0.8v0.4c-0.3-0.1-0.5-0.2-0.6-0.4v0.2c0.1,0.3-0.1,0.4-0.4,0.4l-0.3,0.1
		c-0.1,0.4-0.2,0.5-0.6,0.5s-0.5,0-0.7,0.1l-0.5,0.3L311,357c-0.1,0.1-0.1,0.1-0.2,0.1s-0.2,0-0.2,0.1c-0.2,0.2-0.5,0.4-0.9,0.8
		s-0.7,0.7-0.8,1.1l-0.1,0.2l-1.8,0.8c-0.2,0.1-0.6,0.2-1.1,0.4c-0.2,0.1-0.6,0.1-1,0.1s-0.7,0-1-0.1c-0.1,0.1-0.2,0.1-0.3,0.2
		c-0.1,0.1-0.1,0.1-0.3,0.1h-1.7l-0.9,0.1c-0.7,0.1-1.2,0.2-1.6,0.2l-2.8-0.1c-0.5,0-1,0-1.5,0.1s-1,0.1-1.4,0.1
		c-0.8-0.1-1.4-0.3-1.8-0.4c-0.1-0.1-0.3-0.1-0.6-0.1s-0.5,0-0.7-0.1l-1.2-0.1H288h-0.4h-0.4c-0.2,0.1-0.4,0.1-0.7,0.1
		c-0.1,0.1-0.3,0.1-0.5,0.1l-0.5-0.1h-0.2c-0.1,0.1-0.3,0.1-0.4,0c-0.2,0-0.3,0-0.4,0c-0.4,0.1-0.7,0-1.2,0
		c-0.4-0.1-0.7-0.1-0.9-0.1c-0.4,0-0.8,0-1.2-0.1c-0.4-0.1-0.8-0.1-1.2-0.1c-0.5-0.1-1.1-0.1-2-0.1l-0.2,0.1h-4
		c-1.9,0-3.8,0.1-5.7,0.3l-2.6,0.3l-1.3-0.1c-0.7,0.1-1.2,0.2-1.6,0.2c-0.4,0.1-0.8,0.1-1.1,0c-0.3,0-0.6,0-0.8,0h-1.5H259
		c-0.5-0.1-0.8-0.2-1.1-0.2l-1.3,0.1c-0.6,0-1,0-1.3,0.1l-1.6-0.1h0.3l-2.6,0.2c-1,0-1.8,0-2.3,0.1l-4,0.3c-0.4,0.1-0.8,0.1-1.4,0.1
		l-1.8,0.3c-0.1,0-0.2,0-0.4,0s-0.4,0-0.6,0c-0.4,0-0.7,0.1-1.1,0.3c-0.5,0.3-1,0.4-1.7,0.4l-0.3-0.3c0-0.3-0.1-0.5-0.4-0.6
		c-0.9-0.6-1.5-1.3-1.6-2.1c-0.1-0.2-0.1-0.5-0.1-0.9l0.1-1.7c0-0.1,0-0.1,0.1-0.2s0.1-0.1,0.2-0.2l0.2-0.4c0.2-0.4,0.3-0.7,0.3-1
		c0.1-0.2,0.1-0.4,0.1-0.8l-0.5-1.5l-0.4-0.3c-0.4-0.2-0.5-0.5-0.5-0.8l0.1-0.3c0.2-0.4,0.6-0.6,1.1-0.8l1.2-0.5l0.1-0.2
		c0-0.3,0.1-0.5,0.3-0.6s0.3-0.2,0.4-0.2l0.4-0.1c0-0.1,0-0.1,0.1-0.2s0.2-0.1,0.2-0.1c0.4,0.1,0.6,0.2,0.7,0.4
		c0.5,0.5,0.9,1.1,1.2,2c0.1,0.2,0.2,0.4,0.5,0.4l5.5-0.3l5.9-0.2c0.6,0,1.5-0.1,2.8-0.2s2.3-0.2,2.9-0.2h1.4h0.5l-0.4-1.5l-0.3-1.7
		l-0.4-1.9l-0.4-0.2c-1-0.1-1.9,0-2.7,0.4c-0.2,0.1-0.4,0.2-0.8,0.4c0.1,0.2,0.1,0.4,0,0.4c-0.1,0.1-0.2,0.1-0.5,0
		c-0.3,0-0.6,0.1-0.8,0.3c-0.3,0.2-0.6,0.3-0.8,0.3l-0.5-0.1c-0.2,0-0.4-0.1-0.6-0.2c-0.2-0.1-0.4-0.2-0.5-0.3c-0.1,0-0.1,0-0.1,0
		v-0.1l0.1-1.9v-0.1c-0.2-0.2-0.2-0.4-0.1-0.5s0.2-0.3,0.2-0.4c0.2-0.2,0.4-0.6,0.4-1c0-0.5-0.2-0.9-0.5-1.4
		c-0.1-0.2-0.2-0.4-0.2-0.6c-0.1-0.5-0.3-0.9-0.4-1.1c-0.2-0.2-0.3-0.5-0.3-0.8c0-0.1,0-0.3,0-0.5s0-0.4,0-0.6l0.7-1.1
		c0.1-0.1,0.2-0.1,0.6-0.1c0.3,0.1,0.5,0.1,0.7,0.3c0.1,0.1,0.5,0.4,1.4,1.1c0.4,0.4,0.7,0.7,0.9,0.8c0.2,0.2,0.4,0.4,0.6,0.4
		l3.3-0.3c0.2,0,0.4-0.1,0.4-0.4c0.1-0.4,0.1-0.8,0.1-1.5v-3.3c0-0.3,0-0.5-0.1-0.5c-0.1-0.1-0.3-0.1-0.6,0l-1.9,0.3l-0.5-0.1
		l-0.7,0.2c-0.2,0-0.5,0-0.7-0.1s-0.5-0.1-0.7-0.1c-0.2-0.1-0.6-0.1-1.1-0.1c-0.4-0.1-1-0.1-1.8-0.1h-1.5c-0.2,0.1-0.4,0.1-0.7,0.1
		h-0.3c-0.5-0.1-0.8-0.3-1.1-0.5c-0.2-0.2-0.3-0.5-0.3-0.9c-0.1-0.5-0.1-1,0-1.5c0-0.5,0-1,0-1.5s-0.2-0.9-0.6-1.1
		c-0.1-0.1-0.1-0.2-0.2-0.4s-0.2-0.3-0.2-0.4c-0.1-0.1-0.1-0.3-0.1-0.4s-0.1-0.3-0.1-0.4c-0.2-0.2-0.3-0.6-0.2-1
		c0.1-0.2,0.3-0.5,0.6-0.9l0.2-0.2c0.2-0.4,0.4-0.5,0.8-0.5c0.2,0,0.4,0.1,0.6,0.2c0.6,0.2,1.1,0.7,1.7,1.4c0.1,0.2,0.3,0.3,0.5,0.3
		c0.6,0.1,1.4,0,2.2,0c0.8-0.1,1.4-0.1,1.7-0.1c2.9-0.4,4.9-0.6,6.2-0.6c1.5-0.1,3.6-0.2,6.4-0.4c1.6-0.1,2.9-0.2,3.7-0.2l1.8-0.1
		c0.7-0.1,1.8-0.1,3.3-0.1l5.3-0.3c0.4,0,0.9-0.1,1.6-0.2l2.5-0.2c0.8-0.1,1.8-0.1,3-0.2s2.6-0.1,4.3-0.1h3.1c1.2,0,2.2,0,2.8-0.1
		c1.5,0,3.1,0.1,5,0.4c1.4,0.4,2.4,0.7,3.1,1.1l1.1,0.7l0.2,0.4c0.1,0.2,0.2,0.4,0.4,0.4c0.4,0.1,0.5,0.2,0.5,0.5L308.9,326.4z
		 M256.3,374.9l-0.1-1l0.3-1.2c0-0.1,0-0.2-0.1-0.4c-0.1-0.1-0.1-0.3-0.1-0.5c0-0.1,0-0.1,0-0.3c0-0.1,0-0.2,0-0.3
		c0.2-0.2,0.2-0.4,0.2-0.6s-0.1-0.4-0.1-0.5l-0.1-0.4l0.6-1.8l0.3-0.7c0.4-0.6,0.6-1,0.9-1.3c0.1-0.1,0.3-0.3,0.5-0.7
		c0.2-0.3,0.4-0.6,0.4-0.9c0-0.1,0-0.1,0.1-0.2s0.2-0.1,0.2-0.1c0.2,0.2,0.6,0.4,1.1,0.6s0.8,0.6,1,1.1c0.4,0.8,0.5,1.5,0.5,1.9
		c0,0.5-0.1,0.9-0.4,1.4c-0.1,0.2-0.2,0.4-0.5,0.7c-0.4,0.4-0.5,0.7-0.5,1.1c0,0.2-0.1,0.5-0.4,0.8l-1.4,1.5
		c-0.1,0.1-0.3,0.1-0.4,0.1c-0.5,0-0.8,0.1-1.1,0.4L256.3,374.9z M266.4,338.3h1.5c0.3,0,0.4-0.1,0.4-0.4l0.5-3.2l0.3-2.3
		c0-0.2-0.1-0.3-0.4-0.3c-1.4,0.1-2.4,0.2-3,0.4c-0.2,0-0.4,0.1-0.4,0.2c-0.1,0.2-0.1,0.4-0.2,0.6s-0.1,0.5-0.1,0.7l0.3,3.3
		c0.1,0.5,0.1,0.7,0.2,0.8S265.9,338.3,266.4,338.3z M270.5,349.9l-0.1-0.3l-1-1.4c-0.2-0.4-0.4-0.6-0.6-0.8
		c-0.4-0.3-0.6-0.7-0.6-1.1c0-0.2,0-0.4-0.1-0.4c-0.1-0.3-0.3-0.4-0.4-0.4l-2.2-0.2c-0.1,2-0.2,3.4-0.2,4.3c-0.1,0.4,0,0.6,0.3,0.6
		h0.4c0.8,0,2.1-0.1,3.9-0.2L270.5,349.9z M271.9,322c-0.4,0-0.6,0-0.7-0.1c-0.5-0.1-0.9,0.1-1.3,0.6c-0.1,0.2-0.2,0.2-0.3,0.2
		c-0.1,0-0.2-0.1-0.3-0.3c-0.1-0.2-0.1-0.3-0.3-0.3c-0.4-0.3-0.5-0.6-0.5-1.1c0-0.2,0-0.3,0.1-0.4c0.1-0.2,0-0.5-0.1-0.7
		s-0.2-0.4-0.3-0.5c-0.4-0.9-0.6-2.1-0.6-3.6c0-1.1-0.1-1.8-0.4-2.2c-0.1-0.2-0.2-0.4-0.2-0.5s0-0.2,0.1-0.3
		c0.1-0.1,0.1-0.1,0.2-0.1c0.1-0.1,0.3-0.2,0.5-0.2h0.7c0.3,0,0.5,0,0.7,0.1l0.7,0.4l1.6,1l1.7,1l0.4,0.4l0.5,1.1
		c0.2,0.4,0.1,0.6-0.1,0.8c-0.2,0.2-0.3,0.3-0.3,0.4l-0.2,1.6l-0.3,0.9c-0.1,0.4-0.2,0.6-0.2,0.8c0,0.1,0,0.1-0.1,0.3
		c-0.1,0.1-0.2,0.2-0.4,0.3c-0.1,0-0.1,0-0.1,0.1s-0.1,0.1-0.1,0.1c-0.1,0.1-0.2,0.1-0.3,0.1C272,321.9,272,321.9,271.9,322z
		 M270.8,372.8c-0.2-0.2-0.5-0.4-0.7-0.4s-0.4,0.1-0.7,0.4c0-0.1,0-0.2-0.1-0.3c-0.1-0.1-0.1-0.1-0.1-0.2c0.2-0.3,0.2-0.6,0.1-0.8
		c-0.1-0.3-0.3-0.6-0.5-0.9c-0.1-0.3-0.1-0.6-0.1-1c0-0.7,0-1.2,0.1-1.6l-0.2-0.4c-0.2-0.2-0.3-0.5-0.1-1c0.1-0.5,0.2-0.8,0.2-0.9
		c0-0.4-0.1-0.6-0.3-0.9c-0.2-0.2-0.2-0.4,0.1-0.6c0.1-0.1,0.1-0.1,0.1-0.3c0-0.1,0-0.2,0.1-0.3c0.5-0.1,0.9,0.1,1.4,0.4l0.4,0.3
		c0.2,0.3,0.5,0.5,0.9,0.6c0.1,0,0.3,0.1,0.5,0.4l0.1,0.1c0.5,0.2,0.9,0.7,1.2,1.5l0.5,0.9c0.1,0.1,0.4,0.2,0.7,0.2
		c0.2,0.1,0.4,0.1,0.4,0.2c0.1,0.1,0,0.2-0.1,0.4c-0.2,0.4-0.1,0.7,0.3,1.1l0.4,0.3c-0.2,0.4-0.5,0.4-0.9,0.3
		c-0.2-0.1-0.4-0.1-0.4,0.2l-0.1,0.4c-0.1,0.4-0.3,0.5-0.6,0.5c-0.2,0-0.3,0-0.4,0.1l-2,1.1C271,372.6,270.9,372.7,270.8,372.8z
		 M281.5,349.3v-0.2c-0.1-0.1-0.1-0.1-0.2-0.1s-0.2-0.1-0.2-0.1c-0.2-0.2-0.5-0.6-0.9-1.1c-0.4-0.4-0.7-0.8-1-1.2
		c-0.2-0.2-0.3-0.3-0.4-0.5c-0.1-0.1-0.1-0.3-0.2-0.4l-0.4-0.2h-2.1c-0.3-0.1-0.5,0.1-0.6,0.4c-0.1,0.2-0.1,0.5-0.2,0.7
		s-0.1,0.5-0.3,0.7c0,0.1-0.1,0.2-0.2,0.5s-0.3,0.5-0.5,0.6c-0.3,0.1-0.4,0.4-0.4,0.7v0.4L281.5,349.3z M278,338.1l0.2-0.4l0.4-2.6
		l0.4-2.4c0.1-0.2,0-0.4,0-0.6c-0.1-0.1-0.2-0.2-0.4-0.2l-0.4,0.1c-0.5,0.1-0.8,0.2-1.1,0.2l-1.9-0.1c-0.1-0.1-0.1-0.1-0.2,0
		c-0.1,0-0.1,0-0.2,0l0.1,0.2c0.6,1,1,2,1,3.1l0.1,2.5c0,0.2,0.1,0.4,0.4,0.4h1.6V338.1z M288.7,370.6c-0.1,0-0.2,0-0.4-0.1
		c-0.2-0.1-0.3,0.1-0.2,0.4c-0.4-0.1-0.7-0.1-0.7,0c-0.1,0.1-0.2,0.3-0.3,0.6l-0.3,0.2c-0.2-0.1-0.4,0-0.5,0s-0.3,0.1-0.4,0.1
		c-1.2,0.7-2.4,1-3.7,1c-0.4,0-0.5-0.2-0.5-0.6c0-0.1,0-0.2-0.1-0.3l-0.3-0.4c-0.1-0.2-0.1-0.5-0.1-0.9s0-0.7-0.1-0.9
		c-0.2-0.3-0.3-0.7-0.4-1.2s-0.1-0.9-0.2-1.2c-0.1-0.3-0.1-0.5,0-0.7c0-0.2,0-0.4,0-0.6v-1.2c0-0.1,0-0.2,0-0.4
		c0-0.2,0.1-0.4,0.3-0.4c0.5-0.1,0.9-0.1,1.2,0.2c0.4,0.2,1,0.6,1.8,1.2c0.4,0.1,0.6,0.2,0.8,0.2c0.3-0.1,0.5,0,0.5,0.3l1.2,2
		l0.4,0.5l1.7,2L288.7,370.6z M281.8,349.1l0.1,0.2h0.4c1.2,0,2.2,0,2.8-0.1c0.9,0,2.2-0.1,4-0.2c0.1,0,0.1,0,0.2,0s0.1-0.1,0.1-0.1
		l0.5-2.4c0.1-0.2,0.1-0.6,0.1-1.2h-0.2c-1.1,0.4-2.3,0.6-3.6,0.4h-1.3c-0.1,0-0.3,0.1-0.5,0.2s-0.3,0.3-0.4,0.5
		c-0.1,0.3-0.2,0.7-0.4,1.1c-0.1,0.2-0.2,0.4-0.2,0.5c0,0.5-0.2,0.8-0.7,0.9C282.5,349,282.2,349,281.8,349.1z M293.6,331.2
		l-1.2-0.1l-2.6,0.3c-0.1,0-0.3,0-0.5-0.1s-0.4,0-0.5,0.3h-0.3c-0.6-0.1-1-0.2-1.3-0.2l-1.1,0.1l-1.2,0.3c-0.6,0-1.1,0-1.5,0.1
		c0.1,0.1,0.1,0.1,0.1,0.2s0,0.2,0.1,0.2c0.1,0.2,0.3,0.4,0.5,0.7c0.2,0.3,0.4,0.6,0.7,1c0.1,0.1,0.3,0.6,0.7,1.6l-0.2,0.3
		c-0.1,0.2-0.2,0.4-0.2,0.6c-0.1,0.2-0.1,0.3,0,0.5c0,0.1,0,0.3,0,0.4c0,0.3,0.1,0.5,0.2,0.6s0.3,0.2,0.6,0.2c1.8,0,3.1,0,4,0.1
		l1.7,0.3c0.1-0.3,0.1-0.6,0.3-0.9c0.1-0.3,0.2-0.7,0.3-1c0.1-0.3,0.2-0.7,0.4-1.2c0.2-0.5,0.4-0.9,0.5-1.2c0.1-0.2,0.2-0.6,0.3-1.1
		s0.2-0.9,0.2-1.1V331.2z M301.4,371.3l-0.7,1.1c-0.1,0.1-0.3,0.3-0.4,0.5c-0.2,0.2-0.4,0.4-0.7,0.4c-0.2,0.2-0.4,0.3-0.7,0.3
		l-1.1-0.1c-0.2,0-0.3,0-0.4,0.1c-0.2,0.1-0.4,0.2-0.6,0.4c-0.3,0.3-0.6,0.4-0.9,0.2c-0.1-0.1-0.2-0.2-0.5-0.2
		c-0.5-0.2-0.7-0.5-0.7-1.1c0-0.2-0.1-0.3-0.2-0.4c-0.2-0.1-0.4-0.3-0.4-0.5s0-0.3,0-0.4s0-0.3,0-0.4s0-0.4,0-0.5
		c-0.1-0.2-0.1-0.5-0.2-0.9s-0.2-0.8-0.5-1c-0.1-0.3-0.1-0.6-0.1-0.8c0.1-0.3,0.1-0.6,0.2-0.8c0.1-0.2,0.2-0.4,0.2-0.6
		c0.1-0.2,0.1-0.4,0.1-0.6c0-0.4,0.3-0.5,0.8-0.3l0.2,0.1v-0.4l0.7,0.3c0.7,0.3,1.2,0.6,1.6,1.1l1.3,1.2l1.8,2.1
		c0.1,0.1,0.2,0.4,0.4,0.7C300.7,371,301,371.2,301.4,371.3z"/>
	<path class="st0" d="M403.5,336.7c0,0.1,0,0.1-0.1,0.2s-0.1,0.1-0.2,0.1c-0.5,0.1-0.8,0.2-1.1,0.2c-0.3,0-0.6,0.1-0.8,0.2
		c-0.2,0.1-0.4,0.3-0.4,0.6v0.1c0.1,0.2,0.2,0.4,0.2,0.4c0,0.2-0.2,0.5-0.6,0.8l0.5,0.2c0.4,0.1,0.5,0.3,0.4,0.6
		c-0.1,0.1,0,0.2,0.3,0.4s0.5,0.3,0.7,0.4h0.2v0.1c-0.4,0.2-0.6,0.4-0.9,0.4c-0.4,0.2-0.6,0.4-0.9,0.4c-0.4,0.2-0.8,0.2-1.3,0.2
		c-0.5-0.1-0.9-0.1-1.2-0.1s-0.6,0-0.8,0.1c-0.3,0.1-0.6,0.1-0.9,0.1c-2.1-0.1-3.7-0.2-4.8-0.2c-1.9-0.1-3.3-0.2-4.2-0.2
		c-0.4-0.1-1.1-0.1-1.9-0.1c-0.1,0-0.3,0-0.5,0s-0.5,0-0.9,0h-4c-1,0-2.4,0.1-4.3,0.2l-4.8,0.4l-3.9,0.4l-4.5,0.3
		c-0.9,0.1-2.5,0.2-4.7,0.4c-0.4,0.1-1,0.1-1.6,0.2c-0.7,0.1-1.5,0.2-2.3,0.4c-0.6,0.1-1.3,0.2-2,0.4c-0.8,0.2-1.3,0.3-1.8,0.4
		c-0.2,0.1-0.5,0.1-0.9,0.2s-0.6,0.1-0.8,0.3c-0.4,0.2-1,0.4-1.8,0.5c-0.8,0.2-1.4,0.3-2,0.4s-1.1,0.1-1.4,0.2
		c-0.9,0.1-2.3,0.4-4.2,0.7l-3.3,0.5c-0.9,0.1-1.7,0.2-2.2,0.2l-2.1,0.2l-0.9,0.1c-0.2,0-0.4-0.1-0.5-0.2l-0.7-0.8
		c0,0.1-0.1,0.1-0.2,0.1l0.3-0.8c-0.4-0.1-0.7-0.1-0.8-0.3c-0.1-0.1-0.2-0.3-0.3-0.6c0-0.8,0.3-1.3,0.9-1.6
		c-0.3-0.3-0.4-0.5-0.4-0.6c-0.1-0.2-0.2-0.5-0.3-0.9c-0.1-0.4-0.2-0.7-0.3-1c-0.1-0.6-0.3-1-0.4-1.3c-0.1-0.1-0.1-0.2-0.1-0.4
		c0-0.4,0.1-0.6,0.2-0.9c0.2-0.2,0.8-1,1.8-2.2c0.2-0.2,0.4-0.3,0.8-0.3c0.2,0,0.5,0.1,0.7,0.2c0.6,0.4,1,0.6,1.2,0.9
		c0.2,0.4,0.4,0.7,0.5,0.9c0.1,0.3,0.2,0.5,0.3,0.7c0.1,0.2,0.1,0.4,0.1,0.6s0.1,0.5,0.2,0.9c0,0.2,0.1,0.3,0.4,0.3
		c0.5,0,1.2-0.1,2.3-0.2c0.6-0.1,1.6-0.2,2.9-0.4c0.5-0.1,1.3-0.2,2.4-0.4c2.5-0.4,4.3-0.7,5.5-1.1c0.7-0.2,1.8-0.4,3.3-0.6l5.6-0.9
		l3.5-0.5c1.7-0.2,3.1-0.4,4.1-0.4c0.8-0.1,1.4-0.2,2-0.2s1.1,0,1.4,0l3.3-0.4c2.6-0.4,4.7-0.6,6.2-0.7l9.8-0.8
		c0.4-0.1,0.8-0.1,1.3-0.2s1.2-0.1,1.9-0.1c0.6-0.1,1.4-0.1,2.5-0.1h2.4l2.2-0.1c0.4,0,0.8,0,1.5,0c0.6,0,1.3,0,2.2,0
		c0.1,0,0.2,0.1,0.4,0.3c0.1,0.2,0.2,0.3,0.4,0.4c0.2,0.1,0.4,0.2,0.5,0.2l1.6,0.6l0.1,0.1C403.4,335.6,403.5,336.3,403.5,336.7z
		 M385.1,378.5c0.2,0.1,0.6,0.2,1.2,0.4l-0.8,0.8l-0.1,0.1v0.1c0,0.4-0.1,0.6-0.4,0.7s-0.5,0.2-0.6,0.2c-0.1,0.5-0.2,0.8-0.2,0.9
		c-0.1,0.1-0.1,0.2,0,0.4c0.1,0.1,0.1,0.3,0.1,0.4c0,0.4-0.2,0.7-0.7,1c-0.7,0.4-1.6,0.6-2.6,0.4c-0.2-0.1-0.6-0.1-1.1-0.1
		c-0.3,0-0.8,0.1-1.7,0.2c-0.6,0.1-1.2,0.1-1.8,0c-0.5,0-1,0-1.3,0c-1.2-0.1-2.9-0.1-5.3-0.1c-0.5,0-1.2,0-1.9,0c-0.8,0-1.7,0-2.7,0
		l-1.8-0.1c-0.5,0-1.4,0.1-2.6,0.2c-0.2,0-0.4,0-0.5-0.1c-0.2-0.1-0.4-0.1-0.6-0.1c-0.4-0.1-0.6-0.2-0.9-0.2c-1.7,0-4.1,0.4-7.1,1.2
		c-1.2,0.4-2.5,0.6-3.7,0.8c-0.4,0.1-0.8,0.2-1.1,0.2c-0.3,0-0.6,0-0.7,0s-0.4,0.1-0.9,0.3l-0.2,0.1c-0.5,0-0.8-0.2-1.1-0.7
		c-0.1-0.3-0.3-0.5-0.6-0.7c-0.2-0.2-0.3-0.4-0.4-0.6s-0.2-0.4-0.3-0.5c0.5-0.1,0.7-0.3,0.7-0.6c0-0.4,0.1-0.9,0.4-1.8
		c0.2-0.2,0.4-0.3,0.5-0.3c0.2,0,0.4,0.1,0.5,0.2c0.2,0.3,0.6,0.4,1.1,0.4l0.9-0.1c2.2-0.4,3.9-0.6,5-0.9l4.8-1.1l1.7-0.3
		c-0.4-0.5-0.6-0.8-0.7-1.1l0.6-1.4l1.1,0.1c0.1-0.1,0.1-0.3,0.1-0.4s-0.1-0.2-0.2-0.2s-0.3,0-0.5,0l-9.4,2.2l-1.5,0.5
		c-0.1,0-0.2,0-0.4,0.1c-0.2,0.1-0.4,0-0.6-0.2c0.4-0.2,1.1-0.5,2.1-0.7c0.6-0.1,1.3-0.3,1.8-0.5h-0.4c-1.2,0.4-2,0.6-2.6,0.6
		c-0.7,0.1-1.5,0.1-2.3,0c-0.1,0-0.1-0.1-0.2-0.3c-0.1-0.2-0.1-0.4-0.1-0.5s0-0.4,0.1-0.5c0.1-0.2,0.1-0.4,0.1-0.5
		c0.1-0.2,0.1-0.6,0.1-1.1c-0.1-0.2-0.1-0.5-0.2-0.7s-0.2-0.4-0.2-0.7c0-0.1,0-0.3,0-0.4c0-0.2,0-0.4,0-0.6c0-0.1,0.1-0.2,0.2-0.3
		s0.3-0.1,0.5-0.1c0.5,0,1.1,0.4,1.9,1.1c0.3,0.2,0.7,0.3,1.1,0.3c1.8-0.2,3.3-0.4,4.4-0.6c0.9-0.2,2.9-0.6,5.9-1.2
		c0.3-0.1,0.4-0.2,0.4-0.5v-3.1l-5,1.1c0-0.1-0.1-0.1-0.2-0.3c-0.3,0.4-0.7,0.6-1.2,0.7s-0.9,0.1-1.1,0.2l-3.1,0.5l-3.9,0.5h-0.2
		c-0.2,0-0.4-0.1-0.6-0.3c-0.2-0.2-0.5-0.3-0.7-0.4l0.1-0.1h1.1l-0.2-0.1c-0.5-0.2-0.8-0.5-1-0.8c-0.2-0.4-0.2-0.8-0.1-1.3l0.2-0.4
		c0.3-0.2,0.4-0.6,0.4-1l-0.1-0.8l-0.1-0.2c0.1-0.1,0.1-0.3,0.1-0.5c0-0.3,0-0.6-0.1-0.8s-0.1-0.5-0.1-0.7c0-0.1,0-0.2,0-0.4
		c0-0.1,0-0.3,0-0.4l0.1-0.5c0-0.4-0.1-0.8-0.2-1.2c-0.1-0.5-0.2-0.8-0.3-1.1l0.1-1.4v-4l-0.7,0.4c-0.1-0.2-0.1-0.4-0.1-0.8
		s0.1-0.8,0.2-1.2c0.1-0.1,0.1-0.3,0.3-0.6c0.1-0.3,0.2-0.5,0.2-0.7c0.1-0.5,0.2-0.9,0.6-1.2c0.3-0.3,0.5-0.5,0.6-0.6
		c0.2-0.2,0.4-0.4,0.4-0.5c0.2-0.2,0.3-0.4,0.5-0.4c0.1-0.1,0.4-0.1,0.7,0h0.7c0.8,0,1.3,0,1.7-0.1c1-0.1,2.6-0.4,4.7-0.7l2.8-0.6
		l3.9-0.4c0.4,0,0.6,0,0.8-0.1c0-0.4,0-0.6,0.1-0.7s0.2-0.1,0.5,0c0.6,0.2,1.3,0.4,2.1,0.4c0.7,0,1.8-0.1,3.2-0.4
		c2.9-0.4,5.2-0.6,6.7-0.7c0.6-0.1,1.2-0.1,1.7,0c0.5,0,0.9,0,1.2,0c0.1,0,0.1,0,0.2,0s0.1,0,0.1,0c0.2-0.2,0.4-0.4,0.6-0.4
		s0.4,0,0.6,0.1s0.3,0.1,0.4,0.2c1.3,0.2,2.2,0.4,2.8,0.6c0.4,0.1,0.7,0.2,1,0.4c0.2,0.1,0.4,0.3,0.4,0.6c0,0.3-0.1,0.5-0.3,0.5
		c-0.4,0.1-0.6,0.4-0.7,0.7c0,0.4,0,0.6,0,0.7c-0.1,0.2-0.1,0.5,0,0.7c0,0.2,0,0.4,0,0.7l-0.9,4.9c-0.1,0.2-0.3,1.1-0.8,2.7
		c0,0.2-0.1,0.4-0.4,0.6c-0.8,0.9-1.2,1.4-1.4,1.6c-1.1,0.8-2.2,1.2-3.3,1.2l-1.5-0.1c-0.6,0-1,0-1.2,0.1H371
		c-0.1-0.6-0.2-0.9-0.2-1l1.3-0.4c0.7-0.4,1.2-0.6,1.6-0.7c0.6-0.2,0.9-0.6,0.9-1.3v-3.6l-0.1-0.2c-0.3,0.1-0.7,0.4-1.3,0.7v0.1
		c0,0.3-0.1,0.5-0.4,0.6s-0.4,0.2-0.5,0.2c-0.2,0.1-0.4,0.2-0.8,0.3c-0.4,0.1-0.6,0.3-0.9,0.6l-0.5,0.5c-0.1,0.2-0.1,0.3-0.3,0.4
		c-0.1,0.1-0.3,0.1-0.4,0.1c-0.2,0-0.5,0-0.7,0.1s-0.4,0.1-0.6,0.2c-0.6,0.1-1.2,0.2-1.8,0.5l0.4,0.1l-0.1,0.1h-0.9
		c-0.4,0.1-0.6,0.2-0.7,0.3c-0.1,0.1-0.2,0.4-0.2,0.7l-0.2,2.6c0,0.1,0.1,0.1,0.2,0.3c0,0.1,0,0.1,0.1,0c0.1,0,0.1-0.1,0.1-0.1
		c0.2-0.4,0.5-0.6,0.9-0.7s0.7-0.2,0.8-0.2c0.2-0.1,0.7-0.2,1.7-0.5c0.3,0,0.4,0,0.4,0.1c0.1,0.3,0.2,0.5,0.4,0.6s0.4,0.1,0.6,0.1
		s0.4,0,0.5,0c1.1,0.3,1.8,0.5,1.9,0.5s0.1,0,0.1,0.1s0,0.2,0,0.2l-0.8,0.7l-0.2,0.4c0,0.2,0,0.5-0.1,0.7s-0.2,0.4-0.4,0.5
		c-0.1,0-0.2,0.1-0.2,0.2c-0.2,0.3-0.4,0.5-0.7,0.6c-0.3,0.1-0.6,0.2-1,0.3c-0.1,0-0.2,0-0.3,0.1c-0.6,0-0.8,0.2-0.7,0.7
		c-0.2,0.1-0.5,0.1-0.7,0.3c-0.3,0.1-0.6,0.2-1,0.3l-1.8,0.2v0.2c0.5,0,0.9,0,1.2-0.1v0.2l-0.6,0.1c-0.4,0-0.6,0-0.7,0.1
		s-0.2,0.3-0.3,0.7l-0.3,1.7c-0.1,0.2,0,0.3,0,0.4c0.1,0.1,0.2,0.1,0.4,0.1c1.2-0.2,1.9-0.3,1.9-0.3l4.9-0.5c0.1,0,0.2,0,0.4,0
		s0.4-0.1,0.5-0.3c0.1-0.1,0.4-0.2,0.7-0.2c0.4-0.2,0.7-0.3,1.1-0.3c0.2,0,0.4,0.1,0.8,0.2c0.1,0.1,0.2,0.1,0.4,0c0.1,0,0.1,0,0.2,0
		s0.2,0,0.3,0l2,0.5l0.6,0.4l-0.3,0.3c-0.4,0.2-0.5,0.5-0.4,0.9c0.1,0,0.1,0,0,0v0.1c-0.2,0.1-0.5,0.4-0.9,0.7
		c-0.4,0.4-0.8,0.5-1.3,0.5l-0.5,0.1c-0.3,0.1-0.5,0.1-0.5,0.3s0,0.3,0.1,0.6l-6.6,0.7l-2.2,0.4l-1,0.2l-1.1,0.3
		c-0.1,0-0.2,0.1-0.2,0.3c-0.1,1.2-0.2,2-0.2,2.5c0,0.4,0.2,0.5,0.5,0.5c3.5-0.1,6.2-0.2,8.1-0.2l9-0.3h1.2c0.8,0,1.6-0.2,2.2-0.7
		l0.5-0.1l-0.1,0.4C384.6,378.1,384.7,378.3,385.1,378.5z M343.5,329.8c-0.2-0.4-0.4-0.7-0.5-0.8c-0.1-0.1-0.1-0.1,0-0.3
		c0-0.1,0.1-0.2,0.1-0.3c0.1-0.2,0.2-0.5,0.5-1c0.1-0.4,0.3-0.5,0.6-0.3l1.2,0.8l0.4,0.1c-0.1-0.4-0.1-0.9-0.1-1.6
		c0-0.9,0.1-2.5,0.4-4.6v-1.1c0-1.6-0.1-3.5-0.4-5.5c-0.1-0.2-0.1-0.4-0.3-0.7c-0.1-0.3-0.2-0.6-0.3-0.9c-0.1-0.3-0.2-0.6-0.4-1
		c-0.1-0.1-0.1-0.2,0-0.3c0.1-0.1,0.1-0.3,0.1-0.4h0.2c-0.1-0.1-0.2-0.2-0.2-0.3c-0.2-0.4-0.3-0.7-0.1-1.1c0.1-0.1,0.2-0.2,0.2-0.3
		c0-0.1,0-0.2,0-0.2l0.1-0.3c0.2,0,0.5-0.1,0.9-0.4s0.7-0.4,1-0.4c0.8,0,1.9-0.1,3.3-0.2c0.6,0,1.2,0,1.7-0.1s0.9-0.1,1.2-0.2
		l5.9-0.4c2.7-0.2,4.7-0.4,6.1-0.4c0.5-0.1,1.2-0.1,2-0.2s1.7-0.1,2.9-0.1h8.3l3.2,0.1c0.2,0.1,0.3,0,0.4-0.1
		c0.2-0.1,0.4-0.2,0.7-0.2s0.5,0.1,0.7,0.2c1.1,0.5,1.9,0.8,2.5,0.9c1,0.3,1.7,0.8,2.1,1.5c0.1,0.1,0.1,0.2,0,0.4c0,0.2,0,0.3,0,0.4
		c0.1,0.1,0.2,0.1,0.4,0.2l-0.8,0.5c-0.1,2.1-0.2,3.6-0.4,4.6c-0.1,1.3-0.3,2.4-0.5,3.4c-0.4,1.6-0.8,3.2-1.3,4.8
		c-0.2,0.5-0.6,0.9-1.3,1.1c-0.1,0.1-0.2,0.2-0.3,0.3c-0.1,0.1-0.2,0.2-0.2,0.3c-0.2,0.2-0.4,0.4-0.5,0.6c-0.2,0.2-0.4,0.5-0.6,0.7
		c-0.1,0.1-0.2,0.1-0.4,0.1s-0.4,0-0.5-0.1c-0.2-0.1-0.4-0.2-0.7-0.2c-0.3,0-0.7,0.1-1.1,0.2c-0.2,0-0.4,0-0.7,0c-0.3,0-0.5,0-0.8,0
		c-0.4,0.1-0.6,0.3-0.7,0.4s-0.1,0.2,0,0.4c0,0.1,0.1,0.2,0.2,0.3c0.3,0.3,0.3,0.6,0.1,1l-0.2,0.4c-0.2,0.5-0.5,0.8-1.1,0.7
		l-1.3-0.3c-0.2-0.1-0.4,0-0.5,0.2c-0.2,0.2-0.6,0.4-1,0.5l-1.4,0.1c-0.8,0-1.6-0.1-2.4-0.3c-0.9-0.2-1.8-0.3-2.7-0.3
		c-0.5,0-1.2,0.1-2.3,0.2c-0.7,0.2-1.4,0.3-2,0.3c-0.2,0-0.5,0-0.9,0s-0.8,0.1-1.2,0.2c-0.4,0-0.6,0.1-0.7,0.4
		c-0.2,0.3-0.5,0.5-0.9,0.5s-0.6,0-0.7,0c-3.6,0.9-6.7,1.6-9.2,2c-0.8,0.2-1.4,0.4-1.8,0.4c-0.4,0.1-0.5,0.3-0.4,0.6
		c-0.2,0.1-0.5,0.1-0.9-0.2c-0.5-0.5-0.9-0.8-1.1-1l-0.4-1.2l-0.5-1.4v-0.2C343.9,330.6,343.7,330.3,343.5,329.8z M348.8,371
		c-0.7,0.1-1.2,0.2-1.5,0.4c-0.1-0.1-0.1-0.1-0.1-0.3l1.6-0.3V371z M348.5,328c0.1,0,0.2,0,0.4,0c0.1,0,0.3,0,0.4,0l2.2-0.3
		c0.5-0.1,1.1-0.1,1.9-0.2s1.5-0.2,2.1-0.3l9-1.5c2.3-0.4,4.8-0.6,7.7-0.4c0.1,0,0.2,0,0.4,0s0.3-0.1,0.4-0.4v-0.1
		c0-0.2-0.2-0.4-0.6-0.5l-0.1-0.1l1.1,0.1c1.8-0.1,3.5-0.4,5.1-0.9c0.6-0.2,1-0.7,1-1.3c0-0.8,0.1-1.6,0.3-2.4
		c0.2-0.6,0.3-1.5,0.3-2.8l0.1-1c0-0.5-0.1-0.8-0.4-1.1v-0.2v-1.1c0-0.1,0-0.1-0.1-0.2s-0.1-0.1-0.2-0.1h-1.7l-3.5,0.2
		c-0.5,0.1-1.1,0.1-1.8,0.3c-0.7,0.1-1.6,0.2-2.6,0.3c-1.6,0.2-4.2,0.4-7.7,0.6c-0.5,0.1-1.3,0.1-2.4,0.1c-0.9-0.1-1.6-0.2-2.1-0.2
		s-1,0-1.5,0.1c-0.6,0.1-1,0.1-1.3,0.1c-0.6,0.1-1.2,0.3-1.6,0.4s-0.8,0.4-1.1,0.7c-0.1,0.1-0.1,0.1-0.2,0.1s-0.2,0-0.2,0
		c-0.4-0.2-0.7-0.1-0.8,0.4l-1.9-0.8l0.5,2.6c0.1,0.4,0.2,0.6,0.3,0.7c0.1,0.1,0.3,0.2,0.6,0.2c0.7,0.1,1.4,0.1,2.1,0l2.7-0.4
		c2.2-0.4,3.9-0.6,5.1-0.7c3.3-0.4,6.7-0.8,10.2-1.1c0.4-0.1,0.9-0.1,1.4-0.2s1.2-0.1,1.9-0.1c0.5,0,1.1,0.1,1.9,0.2
		c0.2,0.1,0.5,0.2,0.9,0.3c0.4,0.1,0.6,0.3,0.9,0.3l0.1,0.1c0.2,0.3,0.3,0.7,0.3,1.1s0,0.7,0,0.8c0,0.2-0.1,0.3-0.3,0.5
		c-0.2,0.1-0.4,0.2-0.7,0.2c-0.5,0-0.8,0-0.9,0.1s-0.3,0.3-0.4,0.7c-0.2,0.2-0.4,0.3-0.5,0.3l-2.5,0.2l-3.7,0.3l-2.2,0.3
		c-1.5,0.1-3.1,0.2-4.6,0.5c-3.5,0.6-6.1,1.1-7.8,1.7c-1,0.3-2.5,0.7-4.5,1.1c-0.5,0.1-0.8,0.3-0.8,0.8c0,0.4,0,0.6-0.1,0.7
		c0,0.2,0,0.3-0.1,0.4L348.5,328z M353.4,361.6l1.8-0.8l-0.5-0.1c0.2-0.1,0.6-0.2,1.2-0.3c0.6-0.1,1.1-0.4,1.5-0.7
		c-0.6,0-1,0-1.2,0.1l-4,1.1c-1.1,0.2-1.9,0.5-2.4,0.9c-0.2,0-0.4-0.1-0.5-0.2c-0.5-0.4-0.8-0.9-0.8-1.5v3.3
		C349.8,363.3,351.4,362.6,353.4,361.6z M349.2,315c0-0.1-0.2-0.2-0.6-0.3l0.4,0.8v0.1C349.2,315.3,349.2,315.1,349.2,315z
		 M351.7,370.3v0.3l-2.6,0.4v-0.1L351.7,370.3z M360.4,352.7c-4,0.2-7.5,0.8-10.5,1.8c0.4,0.9,1,1.3,2,1.2c1.5-0.2,4.2-0.6,8-1.1
		c0.2,0,0.3-0.1,0.4-0.4v-1.5H360.4z M359.9,363.4c0.1-0.1,0.1-0.3,0.1-0.7c-0.1-0.2-0.1-0.4,0-0.5c0-0.2,0-0.4,0-0.5
		s-0.1-0.4-0.2-0.9c-1.2,0.4-2.4,0.8-3.7,1.4c-1.3,0.6-2.1,0.9-2.5,1.1l-3,1.3v0.2c0.2,0,0.4,0,0.6,0s0.5,0,0.8,0l7.2-1.1
		C359.6,363.5,359.8,363.4,359.9,363.4z M355.2,376.3c-0.4,0.1-0.7,0.2-1.1,0.4c-0.4,0.1-0.8,0.2-1.2,0.4l-0.1,0.1l-1.9,0.3l0.1,0.2
		l1.8-0.4c1.1-0.2,1.8-0.4,2.4-0.6L355.2,376.3L355.2,376.3z M358.2,375.7l-2.6,0.5l0.1,0.2l2.5-0.5V375.7z M364.7,352.3
		c0,0.1,0,0.2,0,0.4s0,0.4,0,0.6c0,0.3,0.2,0.4,0.5,0.4l2.3-0.2l0.3-0.1c0.1-0.3,0.2-0.4,0.3-0.4c0.1,0,0.2,0,0.3,0
		c0.1,0,0.3,0,0.4,0c0.2,0,0.3-0.1,0.4-0.3c0.1-0.2,0.2-0.4,0.4-0.4c0.2,0,0.4,0,0.5,0.2l0.4,0.2c0.2,0,0.4,0,0.7,0.1
		c0.3,0.1,0.6,0.1,0.7,0.2c0.5,0.1,1.1,0.4,1.9,0.7l0.6,0.1v-0.6c0-0.8-0.1-1.4-0.4-1.9c-0.1-0.3-0.4-0.4-0.7-0.4H372
		c-0.6,0-1.1,0-1.5,0.1c-1.3,0.1-2.3,0.2-3.1,0.4l-2,0.3C365,351.8,364.7,352,364.7,352.3z M366.1,367.7l2.6-0.5
		c-0.4,0.3-0.9,0.5-1.5,0.5c-0.6,0.1-1,0.1-1.2,0.2v-0.2H366.1z"/>
</g>
</svg>
