<?xml version="1.0" encoding="utf-8"?>
<!-- MIT sangsq https://github.com/sangyuxiaowu/MuYu  -->
<svg version="1.1" id="图层_1" xmlns:serif="http://www.serif.com/"
	 xmlns="http://www.w3.org/2000/svg" xmlns:xlink="http://www.w3.org/1999/xlink" x="0px" y="0px" viewBox="0 0 456 456"
	 style="enable-background:new 0 0 456 456;" xml:space="preserve">
<style type="text/css">
	.st0{fill:#F6B16A;}
</style>
<g>
	<path id="svg_5" class="st0" d="M135.1,231.7c10.7-6.4,15.2-17.9,19.4-25.6c11.9-21.8,38.4-43.4,59.1-54.5
		c33.4-17.8,62.8-14.4,75-9.7c5,1.9,8.9,4,11.5,5.5c23.1,12.5,23.5,22.7,23.4,24.9c-0.4,12.6-21.8,23.9-53.4,29.4
		c-16.3,2.6-33.3,8.2-50.1,18.1c-1.1,0.6-2.2,1.3-3.3,2c-0.3,0.2-5,3.7-5.1,10.7c-0.1,4.6,1.8,9,4.9,11.4c0.8,0.5,2.4,1.4,4.5,2.1
		c16.3,5,27.2-17.2,59.7-38.8c3.5-2.3,12.7-5.9,31.1-13c2.5-0.9,6.1-2.3,10.1-0.8c7.7,2.8,11.4,13.7,12.6,17.9
		c2.2,9.3,5,25.8,2.8,46c-0.8,7.1-3.2,29.5-14.1,46.3c-9.7,15-23.2,13.4-107.8,14.1c-1.3,0-8.6,0-18.3-1c-23.8-2.6-35.8-4-42.9-13.2
		c-8.1-10.4-9-23.6-18-29.6c-2.6-1.7-5-2.6-6.6-3.1c-0.8-0.2-8-1.8-10.9-9.6c-3.4-9.3,2.5-18.9,3.5-20.3
		C126,235.3,130.2,234.6,135.1,231.7z"/>
</g>
</svg>